# xmcd
#
# Track frame offsets:
#	150
#	2846
#	10455
#	15148
#	29660
#	33746
#	45147
#	69295
#	98848
#	112295
#	137055
#	150179
#	169423
#	173547
#	187047
#	199765
#	210665
#	220891
#	229498
#
# Disc length: 3118 seconds
#
# Revision: 1
# Processed by: cddbd v1.5.2PL0 Copyright (c) Steve Scherf et al.
# Submitted via: audiograbber 1.83.01
#
DISCID=fe0c2c13
DTITLE=Ольга Макеева - Одному герою
DYEAR=2009
DGENRE=
TTITLE0=Please please me...
TTITLE1=Когда от боли и обиды...
TTITLE2=Тают стекают в сумерки блестки дня...
TTITLE3=Они сидели на кромке дня...
TTITLE4=Ненависть и любовь
TTITLE5=Мотылек
TTITLE6=Дачные письма. Письмо первое
TTITLE7=Дачные письма. Письмо второе
TTITLE8=Дачные письма. Письмо третье
TTITLE9=Дачные письма. Письмо четвертое
TTITLE10=Дачные письма. Письмо пятое
TTITLE11=Дачные письма. Письмо последнее
TTITLE12=Меня не будет любить никто...
TTITLE13=Сегодня, красавица, сказочный день
TTITLE14=О, мой возлюбленный герой...
TTITLE15=Вальс прощального рыцаря
TTITLE16=Полгода романтических соплей...
TTITLE17=Забывай, застывай...
TTITLE18=Говорили, говорили...
EXTD=
EXTT0=
EXTT1=
EXTT2=
EXTT3=
EXTT4=
EXTT5=
EXTT6=
EXTT7=
EXTT8=
EXTT9=
EXTT10=
EXTT11=
EXTT12=
EXTT13=
EXTT14=на обложке диска опечатка
EXTT15=
EXTT16=
EXTT17=
EXTT18=
PLAYORDER=
